<?xml version="1.0" encoding="iso-8859-1"?>
<!-- Generator: Adobe Illustrator 19.0.0, SVG Export Plug-In . SVG Version: 6.00 Build 0)  -->
<svg version="1.1" id="Capa_1" xmlns="http://www.w3.org/2000/svg" xmlns:xlink="http://www.w3.org/1999/xlink" x="0px" y="0px"
	 viewBox="0 0 512 512" style="enable-background:new 0 0 512 512;" xml:space="preserve">
<path style="fill:#F4E08F;" d="M223.043,374.885l-99.961,36.383c-11.635,4.235-24.607-0.81-30.323-11.793L38.219,294.69
	l174.897-63.657l25.575,115.327C241.372,358.447,234.678,370.65,223.043,374.885z"/>
<path style="fill:#B18E82;" d="M89.876,393.938l2.882,5.537c5.716,10.983,18.688,16.028,30.323,11.793l99.961-36.383
	c11.635-4.235,18.329-16.438,15.649-28.526l-1.352-6.094L89.876,393.938z"/>
<g>
	<path style="fill:#EBCE72;" d="M92.758,399.475c5.716,10.983,18.688,16.028,30.323,11.793l36.193-13.173
		c-34.628-12.145-59.191-62.735-70.653-91.694c-1.877-4.741,0.528-10.091,5.319-11.835l123.312-44.882l-4.136-18.651L38.219,294.69
		L92.758,399.475z"/>
	<path style="fill:#EBCE72;" d="M165.856,334.224c-1.062,0-2.139-0.227-3.165-0.705c-3.754-1.75-5.378-6.212-3.628-9.967
		l20.247-43.421c1.751-3.754,6.212-5.378,9.967-3.627c3.754,1.75,5.379,6.212,3.628,9.967l-20.247,43.421
		C171.386,332.62,168.681,334.224,165.856,334.224z"/>
	<path style="fill:#EBCE72;" d="M190.201,336.248c-1.062,0-2.14-0.227-3.165-0.705c-3.754-1.75-5.378-6.213-3.628-9.967
		l9.254-19.845c1.751-3.754,6.217-5.378,9.967-3.627c3.754,1.75,5.378,6.213,3.628,9.967l-9.254,19.845
		C195.731,334.645,193.026,336.248,190.201,336.248z"/>
	<path style="fill:#EBCE72;" d="M185.26,327.194c-1.062,0-2.14-0.227-3.165-0.705l-31.7-14.782c-3.754-1.75-5.378-6.213-3.628-9.967
		s6.214-5.379,9.967-3.627l31.7,14.782c3.754,1.75,5.378,6.213,3.628,9.967C190.79,325.591,188.085,327.194,185.26,327.194z"/>
	<path style="fill:#EBCE72;" d="M112.28,346.606c-1.062,0-2.139-0.227-3.165-0.705l-22.34-10.418
		c-3.754-1.75-5.378-6.213-3.628-9.967c1.752-3.754,6.214-5.378,9.967-3.627l22.34,10.418c3.754,1.75,5.378,6.213,3.627,9.967
		C117.81,345.002,115.104,346.606,112.28,346.606z"/>
</g>
<path style="fill:#F4E08F;" d="M202.691,177.566L11.838,247.031c-9.333,3.397-14.146,13.717-10.749,23.05l6.101,16.764
	c3.397,9.333,13.717,14.146,23.05,10.749l190.853-69.465c9.333-3.397,14.146-13.717,10.749-23.05l-6.102-16.764
	C222.344,178.982,212.024,174.169,202.691,177.566z"/>
<path style="fill:#EBCE72;" d="M11.838,247.031c-9.333,3.397-14.146,13.717-10.749,23.05l6.102,16.764
	c3.397,9.333,13.717,14.146,23.05,10.749l65.454-23.823c-27.642-0.046-44.523-25.589-35.17-44.46L11.838,247.031z"/>
<path style="fill:#A38277;" d="M131.333,378.848l-41.457,15.089l2.882,5.537c5.716,10.983,18.688,16.028,30.323,11.793
	l36.193-13.173C149.058,394.512,139.719,387.581,131.333,378.848z"/>
<path style="fill:#9D7D75;" d="M270.145,320.993L270.145,320.993c26.929,0,50.48-18.135,57.363-44.169l38.89-147.117H173.892
	l38.89,147.117C219.665,302.859,243.217,320.993,270.145,320.993z"/>
<path style="fill:#8A6C68;" d="M366.398,129.708l-4.388,16.599c-115.224,5.792-169.725,16.231-99.51,174.144
	c-23.643-3.065-43.496-20.094-49.717-43.626l-38.89-147.117L366.398,129.708L366.398,129.708z"/>
<path style="fill:#B18E82;" d="M165.111,74.055h210.067c10.273,0,18.601,8.328,18.601,18.601v18.451
	c0,10.273-8.328,18.601-18.601,18.601H165.111c-10.273,0-18.601-8.328-18.601-18.601V92.655
	C146.511,82.382,154.838,74.055,165.111,74.055z"/>
<path style="fill:#EBCE72;" d="M366.163,424.274l46.632-52.259c12.971-14.536,19.657-33.617,18.597-53.069l0,0
	c-3.551-65.15-45.632-121.895-106.944-144.211l-13.649-4.968c-10.968-3.992-22.501,4.348-22.146,16.015l6.473,212.637
	C296.245,435.175,341.679,451.712,366.163,424.274z"/>
<g>
	<path style="fill:#F4E08F;" d="M309.738,241.008c-2.825,0-5.529-1.604-6.802-4.332c-1.751-3.754-0.127-8.217,3.627-9.967
		l33.41-15.58c3.755-1.752,8.217-0.127,9.967,3.627c1.751,3.754,0.127,8.217-3.627,9.967l-33.41,15.58
		C311.878,240.781,310.8,241.008,309.738,241.008z"/>
	<path style="fill:#F4E08F;" d="M339.433,238.804c-2.825,0-5.529-1.604-6.802-4.332l-14.027-30.082
		c-1.751-3.754-0.127-8.217,3.627-9.967c3.754-1.752,8.216-0.127,9.967,3.627l14.027,30.082c1.751,3.754,0.127,8.217-3.627,9.967
		C341.572,238.577,340.494,238.804,339.433,238.804z"/>
	<path style="fill:#F4E08F;" d="M295.126,398.418l-2.131-70.007c-0.593-19.472,6.55-38.387,19.866-52.607l0,0
		c44.597-47.625,113.309-64.046,174.621-41.73l13.649,4.968c10.968,3.992,14.442,17.795,6.671,26.503L366.163,424.274
		C341.679,451.712,296.245,435.175,295.126,398.418z"/>
</g>
<g>
	<path style="fill:#EBCE72;" d="M380.267,295.202c-2.825,0-5.529-1.604-6.802-4.332c-1.751-3.754-0.127-8.217,3.627-9.967
		l62.787-29.278c3.755-1.752,8.216-0.127,9.967,3.627c1.751,3.754,0.127,8.217-3.627,9.967l-62.787,29.278
		C382.406,294.976,381.328,295.202,380.267,295.202z"/>
	<path style="fill:#EBCE72;" d="M357.579,345.619c-2.825,0-5.529-1.603-6.802-4.332c-1.751-3.754-0.127-8.217,3.627-9.967
		l75.747-35.322c3.755-1.752,8.217-0.126,9.967,3.627c1.751,3.754,0.127,8.217-3.627,9.967l-75.747,35.322
		C359.719,345.393,358.641,345.619,357.579,345.619z"/>
	<path style="fill:#EBCE72;" d="M420.186,335.694c-2.825,0-5.529-1.603-6.802-4.332l-26.719-57.299
		c-1.751-3.754-0.127-8.217,3.627-9.967c3.755-1.752,8.216-0.127,9.967,3.627l26.719,57.299c1.751,3.754,0.127,8.217-3.627,9.967
		C422.325,335.468,421.247,335.694,420.186,335.694z"/>
	<path style="fill:#EBCE72;" d="M375.086,359.542c-2.825,0-5.529-1.604-6.802-4.332l-25.36-54.386
		c-1.751-3.754-0.127-8.217,3.627-9.967c3.754-1.753,8.217-0.127,9.967,3.627l25.36,54.386c1.751,3.754,0.127,8.217-3.627,9.967
		C377.226,359.315,376.148,359.542,375.086,359.542z"/>
	<path style="fill:#EBCE72;" d="M345.005,384.672c-2.825,0-5.529-1.603-6.802-4.332l-19.289-41.364
		c-1.751-3.754-0.127-8.217,3.627-9.967c3.755-1.752,8.216-0.127,9.967,3.627L351.797,374c1.751,3.754,0.127,8.217-3.627,9.967
		C347.145,384.445,346.066,384.672,345.005,384.672z"/>
</g>
<g>
</g>
<g>
</g>
<g>
</g>
<g>
</g>
<g>
</g>
<g>
</g>
<g>
</g>
<g>
</g>
<g>
</g>
<g>
</g>
<g>
</g>
<g>
</g>
<g>
</g>
<g>
</g>
<g>
</g>
</svg>
